<?xml version="1.0"?>
<svg version="1.1" xmlns="http://www.w3.org/2000/svg" width="288px" height="50px" style=""><path fill="#0b3a5c" d="M67.34033203125,32.91015625q0-1.5380859375,0.142822265625-3.9990234375t0.340576171875-5.07568359375t0.494384765625-4.954833984375t0.648193359375-3.592529296875q0.1318359375-0.54931640625,0.626220703125-0.6591796875t0.999755859375-0.10986328125q0.68115234375,0,1.175537109375,0.24169921875t0.494384765625,1.0546875q0,3.9990234375-0.494384765625,8.009033203125t-0.538330078125,8.009033203125q0.68115234375-1.03271484375,1.7578125-1.549072265625t2.28515625-0.516357421875q1.669921875,0,2.87841796875,0.68115234375t1.95556640625,1.7578125t1.109619140625,2.493896484375t0.362548828125,2.889404296875q0,0.81298828125-0.164794921875,2.032470703125t-0.494384765625,2.57080078125t-0.8349609375,2.6806640625t-1.197509765625,2.384033203125t-1.593017578125,1.702880859375t-1.9775390625,0.648193359375q-0.2197265625,0-0.582275390625-0.06591796875t-0.72509765625-0.19775390625t-0.604248046875-0.340576171875t-0.24169921875-0.516357421875q0-0.3515625,0.428466796875-0.494384765625t0.692138671875-0.142822265625q0.98876953125-0.439453125,1.7578125-1.834716796875t1.285400390625-3.065185546875t0.780029296875-3.306884765625t0.263671875-2.669677734375q0-0.59326171875-0.17578125-1.58203125t-0.538330078125-1.95556640625t-0.98876953125-1.669921875t-1.483154296875-0.703125q-1.03271484375,0-1.64794921875,1.065673828125t-0.966796875,2.48291015625t-0.472412109375,2.92236328125t-0.120849609375,2.362060546875q0,0.54931640625,0.186767578125,1.087646484375t0.428466796875,1.07666015625t0.428466796875,1.0986328125t0.186767578125,1.109619140625q0,0.263671875-0.230712890625,0.439453125t-0.538330078125,0.28564453125t-0.648193359375,0.142822265625t-0.516357421875,0.032958984375q-1.25244140625,0-1.73583984375-0.59326171875t-0.8349609375-1.669921875q-0.76904296875-2.43896484375-1.065673828125-4.954833984375t-0.296630859375-5.042724609375z M86.075756835938,40.205078125q0-1.5380859375,0.340576171875-3.62548828125t1.153564453125-3.955078125t2.142333984375-3.175048828125t3.350830078125-1.307373046875q1.8896484375,0,2.83447265625,1.087646484375t0.94482421875,2.933349609375q0,1.20849609375-0.450439453125,2.647705078125t-1.285400390625,2.724609375t-1.9775390625,2.142333984375t-2.548828125,0.85693359375l-0.5712890625-0.0439453125q0,0.59326171875,0.17578125,1.593017578125t0.516357421875,1.988525390625t0.87890625,1.73583984375t1.307373046875,0.7470703125q1.12060546875,0,2.1533203125-0.90087890625t1.95556640625-1.99951171875t1.7138671875-1.99951171875t1.4501953125-0.90087890625q0.3515625,0,0.72509765625,0.10986328125t0.41748046875,0.615234375q0,0.3076171875-0.164794921875,0.50537109375t-0.296630859375,0.439453125q-0.68115234375,1.16455078125-1.483154296875,2.21923828125t-1.812744140625,1.91162109375t-2.208251953125,1.351318359375t-2.647705078125,0.494384765625q-1.8896484375,0-3.14208984375-0.670166015625t-2.021484375-1.8017578125t-1.109619140625-2.61474609375t-0.340576171875-3.109130859375z M90.008862304688,38.53515625l0.615234375,0.54931640625q0.439453125,0.3955078125,0.87890625,0.17578125t0.791015625-0.802001953125t0.648193359375-1.439208984375t0.52734375-1.7578125t0.340576171875-1.7578125t0.10986328125-1.42822265625l0-0.7470703125t-0.06591796875-0.791015625t-0.230712890625-0.626220703125t-0.516357421875-0.318603515625q-0.10986328125-0.02197265625-0.19775390625-0.02197265625q-0.7470703125,0-1.2744140625,0.94482421875q-0.5712890625,1.0546875-0.9228515625,2.559814453125t-0.50537109375,3.087158203125t-0.19775390625,2.373046875z M103.53676757812,25.3515625q0-0.3076171875,0.6591796875-0.52734375t1.494140625-0.362548828125t1.614990234375-0.208740234375t1.065673828125-0.10986328125q0-0.59326171875,0.0439453125-1.197509765625t0.24169921875-1.07666015625t0.626220703125-0.758056640625t1.197509765625-0.28564453125q0.63720703125,0,0.966796875,0.15380859375t0.703125,0.63720703125q0.087890625,0.263671875,0.087890625,0.50537109375l0,0.736083984375t-0.0439453125,0.758056640625q0.81298828125-0.087890625,1.614990234375-0.208740234375t1.614990234375-0.120849609375q0.59326171875,0,0.81298828125,0.02197265625t0.439453125,0.52734375q0.17578125,0.50537109375-0.428466796875,0.76904296875t-1.4501953125,0.3955078125t-1.680908203125,0.19775390625t-1.0107421875,0.06591796875q-0.263671875,3.779296875-0.538330078125,7.49267578125t-0.274658203125,7.53662109375q0,1.7138671875,0.10986328125,3.53759765625t0.615234375,3.44970703125q0.1318359375,0.50537109375,0.439453125,0.94482421875t0.3076171875,0.94482421875q0,0.3076171875-0.24169921875,0.4833984375t-0.582275390625,0.296630859375t-0.68115234375,0.142822265625t-0.560302734375,0.02197265625q-1.38427734375,0-2.109375-1.03271484375t-1.043701171875-2.471923828125t-0.340576171875-2.955322265625t-0.02197265625-2.4609375q0-1.93359375,0.076904296875-3.955078125t0.186767578125-3.9990234375t0.3076171875-3.8671875t0.46142578125-3.515625q-0.76904296875,0.087890625-1.505126953125,0.19775390625t-1.505126953125,0.10986328125q-0.17578125,0-0.472412109375-0.02197265625t-0.560302734375-0.10986328125t-0.450439453125-0.24169921875t-0.186767578125-0.439453125z M120.33859863281,39.30419921875q0-1.494140625,0.406494140625-2.87841796875t1.219482421875-2.471923828125t2.032470703125-1.73583984375t2.823486328125-0.648193359375q0.98876953125,0,2.186279296875,0.296630859375t2.252197265625,0.87890625t1.7578125,1.483154296875t0.703125,2.0654296875q0,0.54931640625-0.186767578125,0.8349609375t-0.758056640625,0.28564453125l-0.24169921875-0.0439453125q0.63720703125,1.7138671875,1.0986328125,3.515625t0.90087890625,3.603515625q0.17578125,0.3515625,0.263671875,0.626220703125t0.087890625,0.538330078125q0,0.3515625-0.19775390625,0.582275390625t-0.516357421875,0.340576171875t-0.6591796875,0.15380859375t-0.604248046875,0.0439453125q-0.94482421875,0-1.417236328125-0.32958984375t-0.68115234375-0.90087890625t-0.252685546875-1.285400390625t-0.17578125-1.439208984375q-0.263671875,0.85693359375-0.692138671875,1.669921875t-1.0107421875,1.461181640625t-1.373291015625,1.03271484375t-1.77978515625,0.384521484375q-1.4501953125,0-2.43896484375-0.8349609375t-1.593017578125-2.054443359375t-0.87890625-2.603759765625t-0.274658203125-2.57080078125z M123.45871582031,38.99658203125q0,0.81298828125,0.10986328125,1.7138671875t0.362548828125,1.77978515625t0.648193359375,1.658935546875t0.98876953125,1.373291015625q1.07666015625-1.16455078125,1.593017578125-2.83447265625t0.9228515625-3.218994140625t0.9228515625-2.65869140625t1.593017578125-1.109619140625q0.68115234375,0,1.142578125,0.24169921875q-0.2197265625-0.54931640625-0.72509765625-1.065673828125t-1.131591796875-0.94482421875t-1.29638671875-0.703125t-1.263427734375-0.274658203125q-0.17578125,0-0.406494140625,0.054931640625t-0.362548828125,0.010986328125q-0.90087890625,0.263671875-1.483154296875,0.911865234375t-0.94482421875,1.527099609375t-0.516357421875,1.8017578125t-0.15380859375,1.73583984375z M139.381640625,33.15185546875q0-0.90087890625,0.318603515625-1.51611328125t1.351318359375-0.615234375q0.3955078125,0,0.98876953125,0.120849609375t0.68115234375,0.604248046875q0.2197265625,1.29638671875,0.24169921875,2.8125t0.15380859375,2.8564453125q0.50537109375-0.98876953125,1.29638671875-2.13134765625t1.8017578125-2.109375t2.197265625-1.60400390625t2.4169921875-0.63720703125q0.087890625,0,0.32958984375,0.06591796875t0.450439453125,0.186767578125t0.252685546875,0.274658203125t-0.24169921875,0.28564453125q-0.087890625,0.263671875-0.37353515625,0.318603515625t-0.50537109375,0.054931640625q-0.1318359375,0-0.41748046875-0.10986328125q-1.6259765625,0.85693359375-2.7685546875,2.3291015625t-1.86767578125,3.262939453125t-1.0546875,3.779296875t-0.32958984375,3.878173828125q0,0.94482421875-0.428466796875,1.142578125t-1.373291015625,0.19775390625q-0.50537109375,0-1.065673828125-0.10986328125t-0.780029296875-0.703125q-0.3955078125-1.25244140625-0.648193359375-2.87841796875t-0.384521484375-3.350830078125t-0.186767578125-3.394775390625t-0.054931640625-3.01025390625z M154.99694824219,40.205078125q0-1.5380859375,0.340576171875-3.62548828125t1.153564453125-3.955078125t2.142333984375-3.175048828125t3.350830078125-1.307373046875q1.8896484375,0,2.83447265625,1.087646484375t0.94482421875,2.933349609375q0,1.20849609375-0.450439453125,2.647705078125t-1.285400390625,2.724609375t-1.9775390625,2.142333984375t-2.548828125,0.85693359375l-0.5712890625-0.0439453125q0,0.59326171875,0.17578125,1.593017578125t0.516357421875,1.988525390625t0.87890625,1.73583984375t1.307373046875,0.7470703125q1.12060546875,0,2.1533203125-0.90087890625t1.95556640625-1.99951171875t1.7138671875-1.99951171875t1.4501953125-0.90087890625q0.3515625,0,0.72509765625,0.10986328125t0.41748046875,0.615234375q0,0.3076171875-0.164794921875,0.50537109375t-0.296630859375,0.439453125q-0.68115234375,1.16455078125-1.483154296875,2.21923828125t-1.812744140625,1.91162109375t-2.208251953125,1.351318359375t-2.647705078125,0.494384765625q-1.8896484375,0-3.14208984375-0.670166015625t-2.021484375-1.8017578125t-1.109619140625-2.61474609375t-0.340576171875-3.109130859375z M158.93005371094,38.53515625l0.615234375,0.54931640625q0.439453125,0.3955078125,0.87890625,0.17578125t0.791015625-0.802001953125t0.648193359375-1.439208984375t0.52734375-1.7578125t0.340576171875-1.7578125t0.10986328125-1.42822265625l0-0.7470703125t-0.06591796875-0.791015625t-0.230712890625-0.626220703125t-0.516357421875-0.318603515625q-0.10986328125-0.02197265625-0.19775390625-0.02197265625q-0.7470703125,0-1.2744140625,0.94482421875q-0.5712890625,1.0546875-0.9228515625,2.559814453125t-0.50537109375,3.087158203125t-0.19775390625,2.373046875z M173.35883789062,31.35009765625q0-1.03271484375,0.406494140625-1.527099609375t1.483154296875-0.494384765625q0.63720703125,0,1.197509765625,0.263671875t0.560302734375,1.12060546875q0.087890625,1.25244140625,0.087890625,2.625732421875t0.24169921875,2.603759765625q0.54931640625-0.90087890625,1.241455078125-1.8017578125t1.527099609375-1.60400390625t1.82373046875-1.131591796875t2.1533203125-0.428466796875q1.58203125,0,2.6806640625,0.6591796875t1.812744140625,1.7138671875t1.03271484375,2.384033203125t0.318603515625,2.669677734375q0,2.0654296875-0.626220703125,3.372802734375t-1.658935546875,2.054443359375t-2.340087890625,1.0107421875t-2.625732421875,0.263671875q-1.16455078125,0-2.17529296875-0.450439453125t-1.40625-1.702880859375q0-0.3515625,0.516357421875-0.439453125t0.736083984375-0.087890625q0.72509765625,0,1.07666015625,0.3955078125q0.263671875,0.3076171875,0.582275390625,0.626220703125t0.670166015625,0.318603515625q0.68115234375,0,1.42822265625-0.384521484375t1.373291015625-1.0107421875t1.0546875-1.483154296875t0.428466796875-1.7578125q0-0.76904296875-0.1318359375-1.91162109375t-0.450439453125-2.197265625t-0.87890625-1.82373046875t-1.417236328125-0.76904296875q-1.29638671875,0-2.340087890625,1.1865234375t-1.73583984375,2.8564453125t-1.07666015625,3.4716796875t-0.384521484375,3.01025390625t0.15380859375,3.05419921875t0.318603515625,3.834228515625t0.318603515625,3.834228515625t0.15380859375,3.05419921875q0,0.3076171875-0.252685546875,0.494384765625t-0.604248046875,0.296630859375t-0.714111328125,0.1318359375t-0.538330078125,0.02197265625q-0.59326171875,0-1.241455078125-0.1318359375t-0.889892578125-0.81298828125q-0.3076171875-1.07666015625-0.5712890625-3.065185546875t-0.472412109375-4.39453125t-0.362548828125-5.0537109375t-0.263671875-5.108642578125t-0.164794921875-4.50439453125t-0.054931640625-3.251953125z M194.42336425781,39.30419921875q0-1.494140625,0.406494140625-2.87841796875t1.219482421875-2.471923828125t2.032470703125-1.73583984375t2.823486328125-0.648193359375q0.98876953125,0,2.186279296875,0.296630859375t2.252197265625,0.87890625t1.7578125,1.483154296875t0.703125,2.0654296875q0,0.54931640625-0.186767578125,0.8349609375t-0.758056640625,0.28564453125l-0.24169921875-0.0439453125q0.63720703125,1.7138671875,1.0986328125,3.515625t0.90087890625,3.603515625q0.17578125,0.3515625,0.263671875,0.626220703125t0.087890625,0.538330078125q0,0.3515625-0.19775390625,0.582275390625t-0.516357421875,0.340576171875t-0.6591796875,0.15380859375t-0.604248046875,0.0439453125q-0.94482421875,0-1.417236328125-0.32958984375t-0.68115234375-0.90087890625t-0.252685546875-1.285400390625t-0.17578125-1.439208984375q-0.263671875,0.85693359375-0.692138671875,1.669921875t-1.0107421875,1.461181640625t-1.373291015625,1.03271484375t-1.77978515625,0.384521484375q-1.4501953125,0-2.43896484375-0.8349609375t-1.593017578125-2.054443359375t-0.87890625-2.603759765625t-0.274658203125-2.57080078125z M197.54348144531,38.99658203125q0,0.81298828125,0.10986328125,1.7138671875t0.362548828125,1.77978515625t0.648193359375,1.658935546875t0.98876953125,1.373291015625q1.07666015625-1.16455078125,1.593017578125-2.83447265625t0.9228515625-3.218994140625t0.9228515625-2.65869140625t1.593017578125-1.109619140625q0.68115234375,0,1.142578125,0.24169921875q-0.2197265625-0.54931640625-0.72509765625-1.065673828125t-1.131591796875-0.94482421875t-1.29638671875-0.703125t-1.263427734375-0.274658203125q-0.17578125,0-0.406494140625,0.054931640625t-0.362548828125,0.010986328125q-0.90087890625,0.263671875-1.483154296875,0.911865234375t-0.94482421875,1.527099609375t-0.516357421875,1.8017578125t-0.15380859375,1.73583984375z M213.46640625,38.77685546875q0-2.021484375,0.472412109375-3.966064453125t0.802001953125-3.878173828125q0.087890625-0.50537109375,0.692138671875-0.626220703125t1.021728515625-0.120849609375q0.72509765625,0,1.16455078125,0.2197265625q0.17578125,0.087890625,0.32958984375,0.19775390625t0.15380859375,0.28564453125q0,1.8896484375-0.450439453125,3.69140625t-0.450439453125,3.8232421875q0,0.68115234375,0.098876953125,1.285400390625t0.186767578125,1.197509765625l0.1318359375,0.63720703125q0,0.17578125,0.02197265625,0.3076171875t0.06591796875,0.3076171875q0,0.3955078125-0.560302734375,0.538330078125t-0.977783203125,0.142822265625q-0.63720703125,0-1.175537109375-0.252685546875t-0.845947265625-0.867919921875l-0.3076171875-0.63720703125q-0.263671875-0.50537109375-0.263671875-1.131591796875t-0.10986328125-1.153564453125z M214.87265625,25.54931640625l0-0.41748046875q0-1.03271484375,0.516357421875-1.845703125t1.549072265625-0.81298828125q0.1318359375,0,0.252685546875,0.02197265625t0.252685546875,0.02197265625q0.263671875,0.0439453125,0.692138671875,0.208740234375t0.428466796875,0.516357421875l0,0.0439453125q-0.087890625,0.17578125-0.10986328125,0.362548828125t-0.10986328125,0.318603515625l0.0439453125-0.0439453125q-0.263671875,0.68115234375-0.428466796875,1.0986328125t-0.362548828125,0.670166015625t-0.494384765625,0.362548828125t-0.845947265625,0.10986328125q-0.087890625,0-0.3076171875-0.02197265625t-0.472412109375-0.087890625t-0.428466796875-0.17578125t-0.17578125-0.32958984375z M223.06120605469,33.15185546875q0-0.90087890625,0.318603515625-1.51611328125t1.351318359375-0.615234375q0.3955078125,0,0.98876953125,0.120849609375t0.68115234375,0.604248046875q0.2197265625,1.29638671875,0.24169921875,2.8125t0.15380859375,2.8564453125q0.50537109375-0.98876953125,1.29638671875-2.13134765625t1.8017578125-2.109375t2.197265625-1.60400390625t2.4169921875-0.63720703125q0.087890625,0,0.32958984375,0.06591796875t0.450439453125,0.186767578125t0.252685546875,0.274658203125t-0.24169921875,0.28564453125q-0.087890625,0.263671875-0.37353515625,0.318603515625t-0.50537109375,0.054931640625q-0.1318359375,0-0.41748046875-0.10986328125q-1.6259765625,0.85693359375-2.7685546875,2.3291015625t-1.86767578125,3.262939453125t-1.0546875,3.779296875t-0.32958984375,3.878173828125q0,0.94482421875-0.428466796875,1.142578125t-1.373291015625,0.19775390625q-0.50537109375,0-1.065673828125-0.10986328125t-0.780029296875-0.703125q-0.3955078125-1.25244140625-0.648193359375-2.87841796875t-0.384521484375-3.350830078125t-0.186767578125-3.394775390625t-0.054931640625-3.01025390625z"/><path fill="#" d=""/></svg>
